<svg xmlns="http://www.w3.org/2000/svg" width="900" height="900" viewBox="0 0 900 900">
<rect width="100%" height="100%" fill="white"/>
<polyline points="50,450.0 51,451.4999826389492 52,452.9998611130401 53,454.4995312646482 54,455.99888895061565 55,457.4978300494834 56,458.9962504687221 57,460.4940461519603 58,461.99111308621076 59,463.4873473090936 60,464.98264491605585 61,466.47690206758676 62,467.9700149964291 63,469.46188001478504 64,470.9523935215168 65,472.441452009341 66,473.92895207201656 67,475.4147904115258 68,476.8988638452479 69,478.38106931312404 70,479.8613038848147 71,481.3394647668473 72,482.8154493097545 73,484.289155015203 74,485.76047954311105 75,487.2293207187554 76,488.695576539867 77,490.1591451837142 78,491.61992501417376 79,493.07781458878895 80,494.53271266581413 81,495.9845182112453 82,497.4331304058363 83,498.8784486521003 84,500.3203725812955 85,501.75880206039506 86,503.1936371990411 87,504.6247783564812 88,506.0521261484878 89,507.4755814542602 90,508.8950454233074 91,510.31041948231325 92,511.7216053419812 93,513.1285050038605 94,514.5310207671511 95,515.9290552354886 96,517.3225113237078 97,518.7112922645849 98,520.0953016155571 99,521.4744432654201 100,522.8486214410025 101,524.2177407138165 102,525.5817060066851 103,526.9404226003444 104,528.2937961400214 105,529.6417326419866 106,530.9841385000799 107,532.3209204922119 108,533.6519857868371 109,534.9772419494004 110,536.2965969487566 111,537.6099591635607 112,538.9172373886313 113,540.2183408412836 114,541.5131791676342 115,542.8016624488752 116,544.0837012075186 117,545.3592064136105 118,546.628089490913 119,547.8902623230557 120,549.1456372596546 121,550.3941271223991 122,551.6356452111064 123,552.8701053097411 124,554.0974216924037 125,555.3175091292832 126,556.5302828925755 127,557.735658762368 128,558.9335530324871 129,560.1238825163125 130,561.3065645525527 131,562.481517010986 132,563.6486582981639 133,564.8079073630772 134,565.9591837027843 135,567.1024073680024 136,568.2374989686584 137,569.364379679403 138,570.482971245084 139,571.5931959861811 140,572.6949768042001 141,573.7882371870272 142,574.8729012142417 143,575.9488935623887 144,577.0161395102097 145,578.0745649438318 146,579.1240963619141 147,580.1646608807521 148,581.1961862393391 149,582.2186008043841 150,583.2318335752867 151,584.235814189067 152,585.2304729252527 153,586.2157407107201 154,587.1915491244911 155,588.1578304024849 156,589.114517442223 157,590.0615438074901 158,590.9988437329471 159,591.9263521286977 160,592.8440045848096 161,593.7517373757865 162,594.6494874649941 163,595.5371925090366 164,596.4147908620873 165,597.2822215801689 166,598.1394244253854 167,598.9863398701063 168,599.8229091010993 169,600.649074023615 170,601.4647772654214 171,602.2699621807878 172,603.0645728544188 173,603.8485541053368 174,604.6218514907146 175,605.3844113096554 176,606.1361806069231 177,606.8771071766182 178,607.6071395658046 179,608.326227078082 180,609.0343197771067 181,609.7313684900589 182,610.4173248110584 183,611.092141104525 184,611.7557705084874 185,612.4081669378371 186,613.0492850875286 187,613.6790804357258 188,614.2975092468938 189,614.9045285748358 190,615.5000962656759 191,616.084170960786 192,616.656712099658 193,617.2176799227207 194,617.7670354741008 195,618.3047406043279 196,618.8307579729842 197,619.345051051297 198,619.8475841246759 199,620.3383222951929 200,620.8172314840056 201,621.2842784337236 202,621.739430710719 203,622.1826567073774 204,622.6139256442941 205,623.0332075724106 206,623.4404733750947 207,623.8356947701628 208,624.2188443118434 209,624.5898953926837 210,624.9488222453963 211,625.2955999446497 212,625.6302044087986 213,625.9526124015564 214,626.2628015336086 215,626.5607502641681 216,626.8464379024703 217,627.1198446092109 218,627.3809513979228 219,627.6297401362951 220,627.8661935474322 221,628.0902952110532 222,628.3020295646326 223,628.5013819044809 224,628.688338386766 225,628.8628860284737 226,629.0250127083102 227,629.1747071675435 228,629.3119590107851 229,629.4367587067125 230,629.5490975887299 231,629.6489678555712 232,629.7363625718416 233,629.8112756684986 234,629.8737019432739 235,629.9236370610346 236,629.9610775540842 237,629.9860208224037 238,629.9984651338316 239,629.9984096241845 240,629.9858542973175 241,629.9608000251229 242,629.923248547471 243,629.8732024720879 244,629.8106652743755 245,629.7356412971696 246,629.6481357504387 247,629.5481547109214 248,629.4357051217054 249,629.3107947917447 250,629.1734323953177 251,629.0236274714243 252,628.8613904231242 253,628.6867325168139 254,628.4996658814443 255,628.300203507679 256,628.0883592469913 257,627.8641478107033 258,627.6275847689635 259,627.3786865496658 260,627.1174704373086 261,626.8439545717949 262,626.5581579471722 263,626.2601004103132 264,625.9498026595382 265,625.6272862431777 266,625.2925735580751 267,624.9456878480327 268,624.5866532021962 269,624.2154945533829 270,623.8322376763499 271,623.4369091860042 272,623.0295365355539 273,622.6101480146032 274,622.178772747186 275,621.7354406897449 276,621.2801826290502 277,620.8130301800618 278,620.3340157837346 279,619.8431727047646 280,619.3405350292793 281,618.8261376624711 282,618.3000163261725 283,617.7622075563759 284,617.2127487006965 285,616.6516779157785 286,616.0790341646452 287,615.4948572139939 288,614.8991876314334 289,614.2920667826677 290,613.6735368286227 291,613.0436407225191 292,612.4024222068886 293,611.7499258105372 294,611.0861968454526 295,610.4112814036572 296,609.7252263540076 297,609.02807933894 298,608.3198887711611 299,607.6007038302872 300,606.8705744594278 301,606.129551361718 302,605.3776859967973 303,604.6150305772362 304,603.8416380649101 305,603.0575621673213 306,602.2628573338702 307,601.457578752073 308,600.6417823437296 309,599.8155247610407 310,598.9788633826729 311,598.1318563097747 312,597.2745623619412 313,596.4070410731299 314,595.5293526875262 315,594.6415581553596 316,593.7437191286713 317,592.835897957033 318,591.9181576832168 319,590.9905620388172 320,590.0531754398258 321,589.1060629821574 322,588.1492904371298 323,587.1829242468964 324,586.2070315198321 325,585.2216800258727 326,584.2269381918096 327,583.222875096537 328,582.2095604662552 329,581.1870646696284 330,580.1554587128984 331,579.1148142349532 332,578.065203502352 333,577.0066994043074 334,575.939375447623 335,574.8633057515889 336,573.7785650428352 337,572.6852286501415 338,571.5833724992071 339,570.4730731073774 340,569.3544075783304 341,568.2274535967231 342,567.0922894227954 343,565.9489938869366 344,564.7976463842107 345,563.6383268688426 346,562.471115848666 347,561.2960943795329 348,560.113344059684 349,558.922947024083 350,557.7249859387122 351,556.5195439948322 352,555.3067049032048 353,554.0865528882795 354,552.8591726823445 355,551.6246495196434 356,550.383069130455 357,549.134517735141 358,547.8790820381572 359,546.616849222034 360,545.3479069413207 361,544.072343316499 362,542.7902469278636 363,541.5017068093706 364,540.2068124424549 365,538.9056537498161 366,537.5983210891737 367,536.2849052469927 368,534.9654974321788 369,533.6401892697445 370,532.3090727944461 371,530.9722404443929 372,529.6297850546275 373,528.2817998506789 374,526.9283784420893 375,525.5696148159126 376,524.2056033301877 377,522.8364387073864 378,521.462216027835 379,520.0830307231117 380,518.6989785694198 381,517.3101556809355 382,515.916658503135 383,514.5185838060954 384,513.1160286777756 385,511.70909051727364 386,510.2978670280629 387,508.88245621120757 388,507.4629563585565 389,506.03946604591806 390,504.6120841262141 391,503.18090972261535 392,501.746042221658 393,500.3075812663419 394,498.86562674921083 395,497.42027880541576 396,495.9716378057607 397,494.51980434973296 398,493.06487925851684 399,491.6069635679923 400,490.14615852171863 401,488.68256556390367 402,487.21628633235906 403,485.7474226514421 404,484.2760765249849 405,482.8023501292104 406,481.32634580563723 407,479.8481660539725 408,478.3679135249937 409,476.8856910134205 410,475.40160145077607 411,473.91574789823926 412,472.42823353948734 413,470.9391616735308 414,469.44863570753967 415,467.95675914966256 416,466.4636356018387 417,464.96936875260326 418,463.4740623698869 419,461.9778202938098 420,460.4807464294704 421,458.9829447397298 422,457.4845192379923 423,455.9855739809822 424,454.48621306151784 425,452.9865406012826 426,451.48666074359477 427,449.98667764617494 428,448.48669547391324 429,446.9868183916355 430,445.48715055686955 431,443.9877961126125 432,442.4888591800981 433,440.99044385156645 434,439.4926541830356 435,437.9955941870749 436,436.4993678255825 437,435.0040790025655 438,433.5098315569246 439,432.016729255243 440,430.5248757845805 441,429.03437474527306 442,427.5453296437382 443,426.05784388528747 444,424.5720207669451 445,423.08796347027504 446,421.6057750542153 447,420.12555844792143 448,418.6474164436183 449,417.1714516894623 450,415.69776668241263 451,414.2264637611137 452,412.75764509878803 453,411.2914126961415 454,409.8278683742795 455,408.36711376763606 456,406.9092503169164 457,405.45437926205204 458,404.0026016351704 459,402.55401825357876 460,401.10872971276325 461,399.66683637940275 462,398.2284383843993 463,396.79363561592436 464,395.36252771248274 465,393.9352140559924 466,392.5117937648837 467,391.092365687216 468,389.677028393813 469,388.2658801714181 470,386.8590190158684 471,385.45654262529 472,384.058548393313 473,382.6651334023083 474,381.276394416646 475,379.89242787597516 476,378.5133298885272 477,377.1391962244416 478,375.77012230911475 479,374.40620321657417 480,373.0475336628753 481,371.69420799952445 482,370.3463202069266 483,369.0039638878589 484,367.6672322609709 485,366.33621815431036 486,365.0110139988778 487,363.69171182220686 488,362.3784032419741 489,361.0711794596365 490,359.7701312540979 491,358.4753489754055 492,357.1869225384748 493,355.9049414168461 494,354.6294946364712 495,353.36067076953043 496,352.0985579282825 497,350.8432437589452 498,349.59481543560923 499,348.35335965418415 500,347.1189626263781 501,345.8917100737109 502,344.671687221561 503,343.4589787932472 504,342.25366900414537 505,341.0558415558397 506,339.8655796303106 507,338.6829658841578 508,337.5080824428606 509,336.3410108950748 510,335.18183228696665 511,334.0306271165847 512,332.8874753282699 513,331.75245630710356 514,330.625648873395 515,329.5071312772075 516,328.3969811929248 517,327.2952757138564 518,326.20209134688474 519,325.1175040071513 520,324.0415890127856 521,322.97442107967424 522,321.91607431627267 523,320.86662221845836 524,319.82613766442785 525,318.7946929096345 526,317.77235958177187 527,316.7592086757991 528,315.75531054901074 529,314.76073491615114 530,313.77555084457293 531,312.7998267494405 532,311.8336303889798 533,310.8770288597716 534,309.9300885920936 535,308.9928753453058 536,308.0654542032849 537,307.1478895699041 538,306.240245164561 539,305.3425840177521 540,304.4549684666965 541,303.5774601510062 542,302.7101200084062 543,301.85300827050196 544,301.0061844585978 545,300.1697073795623 546,299.3436351217455 547,298.5280250509445 548,297.72293380641963 549,296.9284172969617 550,296.1445306970088 551,295.3713284428156 552,294.6088642286721 553,293.85719100317584 554,293.1163609655541 555,292.3864255620398 556,291.66743548229795 557,290.9594406559064 558,290.26249024888784 559,289.57663266029624 560,288.90191551885493 561,288.23838567965 562,287.5860892208758 563,286.9450714406352 564,286.31537685379453 565,285.69704918889124 566,285.0901313850981 567,284.49466558924087 568,283.9106931528718 569,283.3382546293973 570,282.77738977126285 571,282.2281375271914 572,281.6905360394792 573,281.1646226413468 574,280.65043385434666 575,280.14800538582676 576,279.65737212645104 577,279.17856814777656 578,278.7116266998871 579,278.2565802090845 580,277.81346027563654 581,277.3822976715828 582,276.96312233859754 583,276.55596338591045 584,276.160849088285 585,275.7778068840555 586,275.406863373221 587,275.0480443155984 588,274.7013746290337 589,274.36687838767136 590,274.04457882028254 591,273.7344983086522 592,273.43665838602453 593,273.15107973560777 594,272.877782189138 595,272.6167847255015 596,272.3681054694174 597,272.13176169017845 598,271.90776980045223 599,271.69614535514086 600,271.4969030503015 601,271.3100567221253 602,271.1356193459764 603,270.9736030354916 604,270.8240190417382 605,270.6868777524337 606,270.5621886912236 607,270.44996051702014 608,270.3502010234017 609,270.26291713807063 610,270.1881149223729 611,270.12579957087667 612,270.0759754110119 613,270.03864590276964 614,270.01381363846184 615,270.00148034254136 616,270.00164687148214 617,270.0143132137197 618,270.039478489652 619,270.0771409517007 620,270.12729798443195 621,270.18994610473885 622,270.2650809620825 623,270.35269733879477 624,270.45278915044025 625,270.5653494462389 626,270.6903704095487 627,270.8278433584086 628,270.97775874614126 629,271.1401061620162 630,271.31487433197253 631,271.5020511194019 632,271.70162352599164 633,271.913577692627 634,272.1378989003538 635,272.37457157140057 636,272.6235792702603 637,272.8849047048317 638,273.15852972762013 639,273.4444353369979 640,273.7426016785238 641,274.05300804632157 642,274.37563288451827 643,274.7104537887409 644,275.05744750767224 645,275.4165899446658 646,275.78785615941894 647,276.1712203697047 648,276.5666559531627 649,276.97413544914724 650,277.3936305606351 651,277.82511215618973 652,278.26855027198485 653,278.7239141138852 654,279.1911720595846 655,279.6702916608025 656,280.16123964553685 657,280.6639819203749 658,281.1784835728607 659,281.7047088739197 660,282.24262128033956 661,282.7921834373084 662,283.35335718100816 663,283.9261035412657 664,284.5103827442583 665,285.10615421527615 666,285.7133765815398 667,286.3320076750735 668,286.96200453563324 669,287.60332341369 670,288.2559197734687 671,288.91974829603953 672,289.5947628824667 673,290.2809166570082 674,290.9781619703724 675,291.6864504030259 676,292.4057327685567 677,293.13595911708944 678,293.87707873875473 679,294.62904016720984 680,295.3917911832134 681,296.1652788182514 682,296.9494493582155 683,297.74424834713346 684,298.5496205909503 685,299.36551016136184 686,300.1918603996978 687,301.0286139208572 688,301.87571261729283 689,302.7330976630469 690,303.60070951783564 691,304.47848793118453 692,305.36637194661193 693,306.2642999058628 694,307.17220945318934 695,308.0900375396826 696,309.0177204276498 697,309.95519369504075 698,310.9023922399223 699,311.8592502849981 700,312.8257013821776 701,313.80167841718935 702,314.7871136142429 703,315.78193854073425 704,316.786084111999 705,317.7994805961092 706,318.82205761871654 707,319.85374416793843 708,320.89446859929046 709,321.9441586406607 710,323.0027413973295 711,324.07014335703064 712,325.14629039505695 713,326.2311077794079 714,327.32452017597876 715,328.42645165379264 716,329.53682569027285 717,330.6555651765578 718,331.7825924228547 719,332.9178291638358 720,334.0611965640723 721,335.21261522350994 722,336.3720051829821 723,337.5392859297634 724,338.71437640315963 725,339.89719500013825 726,341.0876595809941 727,342.2856874750541 728,343.4911954864183 729,344.7040998997369 730,345.9243164860244 731,347.15176050850795 732,348.386346728513 733,349.62798941138107 734,350.87660233242525 735,352.1320987829164 736,353.39439157610576 737,354.6633930532787 738,355.9390150898429 739,357.22116910144695 740,358.5097660501335 741,359.80471645052097 742,361.1059303760186 743,362.41331746507126 744,363.7267869274342 745,365.0462475504783 746,366.3716077055237 747,367.70277535420354 748,369.03965805485484 749,370.3821629689386 750,371.73019686748614 751,373.0836661375743 752,374.4424767888253 753,375.80653445993454 754,377.1757444252229 755,378.55001160121554 756,379.929240553244 757,381.31333550207404 758,382.7022003305575 759,384.0957385903058 760,385.49385350838895 761,386.8964479940548 762,388.3034246454725 763,389.71468575649527 764,391.13013332344667 765,392.54966905192543 766,393.97319436363216 767,395.4006104032144 768,396.831818045132 769,398.26671790054047 770,399.70521032419333 771,401.1471954213614 772,402.59257305477 773,404.04124285155365 774,405.4931042102248 775,406.948056307662 776,408.4059981061094 777,409.86682836019503 778,411.33044562396026 779,412.7967482579058 780,414.26563443604886 781,415.7370021529954 782,417.21074923102276 783,418.6867733271764 784,420.16497194037595 785,421.6452424185343 786,423.12748196568504 787,424.61158764912193 788,426.097456406547 789,427.58498505322666 790,429.07407028915867 791,430.5646087062441 792,432.05649679547 793,433.54963095409613 794,435.0439074928506 795,436.53922264312973 796,438.0354725642048 797,439.5325533504322 798,441.03036103847046 799,442.52879161449846 800,444.0277410214398 801,445.5271051661878 802,447.02677992683493 803,448.52666115990354 804,450.02664470757713 805,451.52662640493463 806,453.02650208718296 807,454.52616759689164 808,456.0255187912249 809,457.52445154917496 810,459.0228617787911 811,460.52064542440996 812,462.01769847388 813,463.51391696578577 814,465.0091969966664 815,466.503434728232 816,467.99652639457383 817,469.4883683093705 818,470.97885687308883 819,472.4678885801773 820,473.955360026255 821,475.44116791529115 822,476.92520906677976 823,478.4073804229036 824,479.8875790556923 825,481.36570217416863 826,482.8416471314882 827,484.3153114320662 828,485.7865927386965 829,487.2553888796572 830,488.7215978558068 831,490.1851178476666 832,491.64584722249185 833,493.1036845413299 834,494.5585285660638 835,496.01027826644327 836,497.4588328271001 837,498.90409165455003 838,500.3459543841772 839,501.7843208872052 840,503.21909127764894 841,504.6501659192528 842,506.077445432408 843,507.5008307010557 844,508.9202228795683 845,510.3355233996154 846,511.7466339770071 847,513.1534566185204 848,514.5558936287041 849,515.9538476166624" fill="none" stroke="black" stroke-width="4"/>
<text x="80" y="150" font-family="sans-serif" font-size="28">Expansion</text>
<text x="80" y="750" font-family="sans-serif" font-size="28">Contraction</text>
</svg>